<svg aria-hidden="true" style="position: absolute; width: 0; height: 0; overflow: hidden;" version="1.1" xmlns="http://www.w3.org/2000/svg" xmlns:xlink="http://www.w3.org/1999/xlink">
<defs>
<symbol id="icon-preloader" viewBox="0 0 32 32">
<path fill="#00bdd3" style="fill: var(--color1, #00bdd3)" d="M16 1.6c0-0.883 0.718-1.608 1.597-1.52 8.122 0.839 14.403 7.646 14.403 15.92 0 8.837-7.163 16-16 16-8.274 0-15.081-6.28-15.914-14.334l-0.006-0.069c-0.088-0.879 0.637-1.597 1.52-1.597s1.59 0.719 1.7 1.596c0.821 6.349 6.193 11.204 12.7 11.204 7.069 0 12.8-5.731 12.8-12.8 0-6.507-4.855-11.879-11.14-12.693l-0.064-0.007c-0.877-0.11-1.596-0.817-1.596-1.7z"></path>
</symbol>
</defs>
</svg>
